<mxfile host="Electron" agent="Mozilla/5.0 (Windows NT 10.0; Win64; x64) AppleWebKit/537.36 (KHTML, like Gecko) draw.io/28.2.7 Chrome/138.0.7204.251 Electron/37.7.1 Safari/537.36" version="28.2.7">
  <diagram name="Страница — 1" id="oDoPUolx1gqNj7je5esf">
    <mxGraphModel dx="2060" dy="1392" grid="1" gridSize="10" guides="1" tooltips="1" connect="1" arrows="1" fold="1" page="1" pageScale="1" pageWidth="827" pageHeight="1169" math="0" shadow="0">
      <root>
        <mxCell id="0" />
        <mxCell id="1" parent="0" />
        <mxCell id="GK6ecYZaYPcixejjLXr3-1" value="Карта IT-ландшафта" style="shape=table;childLayout=tableLayout;startSize=30;collapsible=0;recursiveResize=0;expand=0;fontSize=16;" parent="1" vertex="1">
          <mxGeometry x="100" y="150" width="1440" height="1189" as="geometry" />
        </mxCell>
        <mxCell id="GK6ecYZaYPcixejjLXr3-2" value="Управление обслуживанием в сети отделений" style="shape=tableRow;horizontal=0;swimlaneHead=0;swimlaneBody=0;top=0;left=0;strokeColor=#23445d;bottom=0;right=0;dropTarget=0;fontStyle=0;fillColor=#bac8d3;points=[[0,0.5],[1,0.5]];portConstraint=eastwest;startSize=70;collapsible=0;recursiveResize=0;expand=0;fontSize=16;whiteSpace=wrap;" parent="GK6ecYZaYPcixejjLXr3-1" vertex="1">
          <mxGeometry y="30" width="1440" height="192" as="geometry" />
        </mxCell>
        <mxCell id="GK6ecYZaYPcixejjLXr3-3" value="Продажи в сети отделений" style="swimlane;swimlaneHead=0;swimlaneBody=0;fontStyle=0;strokeColor=#56517e;connectable=0;fillColor=#d0cee2;startSize=50;collapsible=0;recursiveResize=0;expand=0;fontSize=16;whiteSpace=wrap;fontColor=#000000;textShadow=0;labelBackgroundColor=none;" parent="GK6ecYZaYPcixejjLXr3-2" vertex="1">
          <mxGeometry x="70" width="228" height="192" as="geometry">
            <mxRectangle width="228" height="192" as="alternateBounds" />
          </mxGeometry>
        </mxCell>
        <mxCell id="GK6ecYZaYPcixejjLXr3-93" value="&lt;font style=&quot;font-size: 24px;&quot;&gt;АБС&lt;/font&gt;" style="rounded=1;whiteSpace=wrap;html=1;fillColor=#60a917;fontColor=#ffffff;strokeColor=#2D7600;" parent="GK6ecYZaYPcixejjLXr3-3" vertex="1">
          <mxGeometry x="20" y="60" width="1330" height="700" as="geometry" />
        </mxCell>
        <mxCell id="GXiveSJmjY2PFx9GdGHL-1" value="Интернет-банк" style="rounded=1;whiteSpace=wrap;html=1;fillColor=#6a00ff;fontColor=#ffffff;strokeColor=#3700CC;" vertex="1" parent="GK6ecYZaYPcixejjLXr3-3">
          <mxGeometry x="690" y="290" width="180" height="48" as="geometry" />
        </mxCell>
        <mxCell id="GK6ecYZaYPcixejjLXr3-130" value="Телеком-оператор" style="rounded=1;whiteSpace=wrap;html=1;fillColor=#e51400;fontColor=#ffffff;strokeColor=#B20000;" parent="GK6ecYZaYPcixejjLXr3-3" vertex="1">
          <mxGeometry x="470" y="70" width="187" height="50" as="geometry" />
        </mxCell>
        <mxCell id="GK6ecYZaYPcixejjLXr3-131" value="СМС-шлюз телеком-оператора" style="rounded=1;whiteSpace=wrap;html=1;fillColor=#e51400;fontColor=#ffffff;strokeColor=#B20000;" parent="GK6ecYZaYPcixejjLXr3-3" vertex="1">
          <mxGeometry x="470" y="130" width="187" height="60" as="geometry" />
        </mxCell>
        <mxCell id="GK6ecYZaYPcixejjLXr3-87" value="Бюро кредитных историй" style="rounded=1;whiteSpace=wrap;html=1;fillColor=#a0522d;fontColor=#ffffff;strokeColor=#6D1F00;" parent="GK6ecYZaYPcixejjLXr3-3" vertex="1">
          <mxGeometry x="927.5" y="710" width="202.5" height="40" as="geometry" />
        </mxCell>
        <mxCell id="GK6ecYZaYPcixejjLXr3-4" value="Продажи через кол-центр" style="swimlane;swimlaneHead=0;swimlaneBody=0;fontStyle=0;strokeColor=#56517e;connectable=0;fillColor=#d0cee2;startSize=50;collapsible=0;recursiveResize=0;expand=0;fontSize=16;whiteSpace=wrap;fontColor=#000000;" parent="GK6ecYZaYPcixejjLXr3-2" vertex="1">
          <mxGeometry x="298" width="229" height="192" as="geometry">
            <mxRectangle width="229" height="192" as="alternateBounds" />
          </mxGeometry>
        </mxCell>
        <mxCell id="GK6ecYZaYPcixejjLXr3-5" value="Digital-оповещения клиентов" style="swimlane;swimlaneHead=0;swimlaneBody=0;fontStyle=0;strokeColor=#56517e;connectable=0;fillColor=#d0cee2;startSize=50;collapsible=0;recursiveResize=0;expand=0;fontSize=16;whiteSpace=wrap;fontColor=#000000;" parent="GK6ecYZaYPcixejjLXr3-2" vertex="1">
          <mxGeometry x="527" width="228" height="192" as="geometry">
            <mxRectangle width="228" height="192" as="alternateBounds" />
          </mxGeometry>
        </mxCell>
        <mxCell id="GK6ecYZaYPcixejjLXr3-55" value="Обслуживание депозитных процессов" style="swimlane;swimlaneHead=0;swimlaneBody=0;fontStyle=0;strokeColor=#56517e;connectable=0;fillColor=#d0cee2;startSize=50;collapsible=0;recursiveResize=0;expand=0;fontSize=16;whiteSpace=wrap;fontColor=#000000;" parent="GK6ecYZaYPcixejjLXr3-2" vertex="1">
          <mxGeometry x="755" width="228" height="192" as="geometry">
            <mxRectangle width="228" height="192" as="alternateBounds" />
          </mxGeometry>
        </mxCell>
        <mxCell id="GK6ecYZaYPcixejjLXr3-58" value="Обслуживание кредитных процессов" style="swimlane;swimlaneHead=0;swimlaneBody=0;fontStyle=0;strokeColor=#56517e;connectable=0;fillColor=#d0cee2;startSize=50;collapsible=0;recursiveResize=0;expand=0;fontSize=16;whiteSpace=wrap;fontColor=#000000;" parent="GK6ecYZaYPcixejjLXr3-2" vertex="1">
          <mxGeometry x="983" width="229" height="192" as="geometry">
            <mxRectangle width="229" height="192" as="alternateBounds" />
          </mxGeometry>
        </mxCell>
        <mxCell id="GK6ecYZaYPcixejjLXr3-61" value="Управление договорами" style="swimlane;swimlaneHead=0;swimlaneBody=0;fontStyle=0;strokeColor=#56517e;connectable=0;fillColor=#d0cee2;startSize=50;collapsible=0;recursiveResize=0;expand=0;fontSize=16;whiteSpace=wrap;fontColor=#000000;" parent="GK6ecYZaYPcixejjLXr3-2" vertex="1">
          <mxGeometry x="1212" width="228" height="192" as="geometry">
            <mxRectangle width="228" height="192" as="alternateBounds" />
          </mxGeometry>
        </mxCell>
        <mxCell id="GK6ecYZaYPcixejjLXr3-6" value="Управление IT" style="shape=tableRow;horizontal=0;swimlaneHead=0;swimlaneBody=0;top=0;left=0;strokeColor=#23445d;bottom=0;right=0;dropTarget=0;fontStyle=0;fillColor=#bac8d3;points=[[0,0.5],[1,0.5]];portConstraint=eastwest;startSize=70;collapsible=0;recursiveResize=0;expand=0;fontSize=16;" parent="GK6ecYZaYPcixejjLXr3-1" vertex="1">
          <mxGeometry y="222" width="1440" height="198" as="geometry" />
        </mxCell>
        <mxCell id="GK6ecYZaYPcixejjLXr3-7" value="" style="swimlane;swimlaneHead=0;swimlaneBody=0;fontStyle=0;connectable=0;strokeColor=inherit;fillColor=none;startSize=0;collapsible=0;recursiveResize=0;expand=0;fontSize=16;" parent="GK6ecYZaYPcixejjLXr3-6" vertex="1">
          <mxGeometry x="70" width="228" height="198" as="geometry">
            <mxRectangle width="228" height="198" as="alternateBounds" />
          </mxGeometry>
        </mxCell>
        <mxCell id="GK6ecYZaYPcixejjLXr3-8" value="" style="swimlane;swimlaneHead=0;swimlaneBody=0;fontStyle=0;connectable=0;strokeColor=inherit;fillColor=none;startSize=0;collapsible=0;recursiveResize=0;expand=0;fontSize=16;" parent="GK6ecYZaYPcixejjLXr3-6" vertex="1">
          <mxGeometry x="298" width="229" height="198" as="geometry">
            <mxRectangle width="229" height="198" as="alternateBounds" />
          </mxGeometry>
        </mxCell>
        <mxCell id="GK6ecYZaYPcixejjLXr3-9" value="" style="swimlane;swimlaneHead=0;swimlaneBody=0;fontStyle=0;connectable=0;strokeColor=inherit;fillColor=none;startSize=0;collapsible=0;recursiveResize=0;expand=0;fontSize=16;" parent="GK6ecYZaYPcixejjLXr3-6" vertex="1">
          <mxGeometry x="527" width="228" height="198" as="geometry">
            <mxRectangle width="228" height="198" as="alternateBounds" />
          </mxGeometry>
        </mxCell>
        <mxCell id="GK6ecYZaYPcixejjLXr3-56" style="swimlane;swimlaneHead=0;swimlaneBody=0;fontStyle=0;connectable=0;strokeColor=inherit;fillColor=none;startSize=0;collapsible=0;recursiveResize=0;expand=0;fontSize=16;" parent="GK6ecYZaYPcixejjLXr3-6" vertex="1">
          <mxGeometry x="755" width="228" height="198" as="geometry">
            <mxRectangle width="228" height="198" as="alternateBounds" />
          </mxGeometry>
        </mxCell>
        <mxCell id="GK6ecYZaYPcixejjLXr3-59" style="swimlane;swimlaneHead=0;swimlaneBody=0;fontStyle=0;connectable=0;strokeColor=inherit;fillColor=none;startSize=0;collapsible=0;recursiveResize=0;expand=0;fontSize=16;" parent="GK6ecYZaYPcixejjLXr3-6" vertex="1">
          <mxGeometry x="983" width="229" height="198" as="geometry">
            <mxRectangle width="229" height="198" as="alternateBounds" />
          </mxGeometry>
        </mxCell>
        <mxCell id="GK6ecYZaYPcixejjLXr3-62" style="swimlane;swimlaneHead=0;swimlaneBody=0;fontStyle=0;connectable=0;strokeColor=inherit;fillColor=none;startSize=0;collapsible=0;recursiveResize=0;expand=0;fontSize=16;" parent="GK6ecYZaYPcixejjLXr3-6" vertex="1">
          <mxGeometry x="1212" width="228" height="198" as="geometry">
            <mxRectangle width="228" height="198" as="alternateBounds" />
          </mxGeometry>
        </mxCell>
        <mxCell id="GK6ecYZaYPcixejjLXr3-10" value="Управление обслуживанием депозитных продуктов" style="shape=tableRow;horizontal=0;swimlaneHead=0;swimlaneBody=0;top=0;left=0;strokeColor=#23445d;bottom=0;right=0;dropTarget=0;fontStyle=0;fillColor=#bac8d3;points=[[0,0.5],[1,0.5]];portConstraint=eastwest;startSize=70;collapsible=0;recursiveResize=0;expand=0;fontSize=16;whiteSpace=wrap;" parent="GK6ecYZaYPcixejjLXr3-1" vertex="1">
          <mxGeometry y="420" width="1440" height="192" as="geometry" />
        </mxCell>
        <mxCell id="GK6ecYZaYPcixejjLXr3-11" value="" style="swimlane;swimlaneHead=0;swimlaneBody=0;fontStyle=0;connectable=0;strokeColor=inherit;fillColor=none;startSize=0;collapsible=0;recursiveResize=0;expand=0;fontSize=16;" parent="GK6ecYZaYPcixejjLXr3-10" vertex="1">
          <mxGeometry x="70" width="228" height="192" as="geometry">
            <mxRectangle width="228" height="192" as="alternateBounds" />
          </mxGeometry>
        </mxCell>
        <mxCell id="GK6ecYZaYPcixejjLXr3-12" value="" style="swimlane;swimlaneHead=0;swimlaneBody=0;fontStyle=0;connectable=0;strokeColor=inherit;fillColor=none;startSize=0;collapsible=0;recursiveResize=0;expand=0;fontSize=16;" parent="GK6ecYZaYPcixejjLXr3-10" vertex="1">
          <mxGeometry x="298" width="229" height="192" as="geometry">
            <mxRectangle width="229" height="192" as="alternateBounds" />
          </mxGeometry>
        </mxCell>
        <mxCell id="GK6ecYZaYPcixejjLXr3-13" value="" style="swimlane;swimlaneHead=0;swimlaneBody=0;fontStyle=0;connectable=0;strokeColor=inherit;fillColor=none;startSize=0;collapsible=0;recursiveResize=0;expand=0;fontSize=16;" parent="GK6ecYZaYPcixejjLXr3-10" vertex="1">
          <mxGeometry x="527" width="228" height="192" as="geometry">
            <mxRectangle width="228" height="192" as="alternateBounds" />
          </mxGeometry>
        </mxCell>
        <mxCell id="GK6ecYZaYPcixejjLXr3-57" value="" style="swimlane;swimlaneHead=0;swimlaneBody=0;fontStyle=0;connectable=0;strokeColor=inherit;fillColor=none;startSize=0;collapsible=0;recursiveResize=0;expand=0;fontSize=16;" parent="GK6ecYZaYPcixejjLXr3-10" vertex="1">
          <mxGeometry x="755" width="228" height="192" as="geometry">
            <mxRectangle width="228" height="192" as="alternateBounds" />
          </mxGeometry>
        </mxCell>
        <mxCell id="GK6ecYZaYPcixejjLXr3-60" style="swimlane;swimlaneHead=0;swimlaneBody=0;fontStyle=0;connectable=0;strokeColor=inherit;fillColor=none;startSize=0;collapsible=0;recursiveResize=0;expand=0;fontSize=16;" parent="GK6ecYZaYPcixejjLXr3-10" vertex="1">
          <mxGeometry x="983" width="229" height="192" as="geometry">
            <mxRectangle width="229" height="192" as="alternateBounds" />
          </mxGeometry>
        </mxCell>
        <mxCell id="GK6ecYZaYPcixejjLXr3-63" style="swimlane;swimlaneHead=0;swimlaneBody=0;fontStyle=0;connectable=0;strokeColor=inherit;fillColor=none;startSize=0;collapsible=0;recursiveResize=0;expand=0;fontSize=16;" parent="GK6ecYZaYPcixejjLXr3-10" vertex="1">
          <mxGeometry x="1212" width="228" height="192" as="geometry">
            <mxRectangle width="228" height="192" as="alternateBounds" />
          </mxGeometry>
        </mxCell>
        <mxCell id="GK6ecYZaYPcixejjLXr3-78" value="Управление обслуживанием кредитных продуктов" style="shape=tableRow;horizontal=0;swimlaneHead=0;swimlaneBody=0;top=0;left=0;strokeColor=#23445d;bottom=0;right=0;dropTarget=0;fontStyle=0;fillColor=#bac8d3;points=[[0,0.5],[1,0.5]];portConstraint=eastwest;startSize=70;collapsible=0;recursiveResize=0;expand=0;fontSize=16;whiteSpace=wrap;" parent="GK6ecYZaYPcixejjLXr3-1" vertex="1">
          <mxGeometry y="612" width="1440" height="192" as="geometry" />
        </mxCell>
        <mxCell id="GK6ecYZaYPcixejjLXr3-79" style="swimlane;swimlaneHead=0;swimlaneBody=0;fontStyle=0;connectable=0;strokeColor=inherit;fillColor=none;startSize=0;collapsible=0;recursiveResize=0;expand=0;fontSize=16;" parent="GK6ecYZaYPcixejjLXr3-78" vertex="1">
          <mxGeometry x="70" width="228" height="192" as="geometry">
            <mxRectangle width="228" height="192" as="alternateBounds" />
          </mxGeometry>
        </mxCell>
        <mxCell id="GK6ecYZaYPcixejjLXr3-80" style="swimlane;swimlaneHead=0;swimlaneBody=0;fontStyle=0;connectable=0;strokeColor=inherit;fillColor=none;startSize=0;collapsible=0;recursiveResize=0;expand=0;fontSize=16;" parent="GK6ecYZaYPcixejjLXr3-78" vertex="1">
          <mxGeometry x="298" width="229" height="192" as="geometry">
            <mxRectangle width="229" height="192" as="alternateBounds" />
          </mxGeometry>
        </mxCell>
        <mxCell id="GK6ecYZaYPcixejjLXr3-81" style="swimlane;swimlaneHead=0;swimlaneBody=0;fontStyle=0;connectable=0;strokeColor=inherit;fillColor=none;startSize=0;collapsible=0;recursiveResize=0;expand=0;fontSize=16;" parent="GK6ecYZaYPcixejjLXr3-78" vertex="1">
          <mxGeometry x="527" width="228" height="192" as="geometry">
            <mxRectangle width="228" height="192" as="alternateBounds" />
          </mxGeometry>
        </mxCell>
        <mxCell id="GK6ecYZaYPcixejjLXr3-82" style="swimlane;swimlaneHead=0;swimlaneBody=0;fontStyle=0;connectable=0;strokeColor=inherit;fillColor=none;startSize=0;collapsible=0;recursiveResize=0;expand=0;fontSize=16;" parent="GK6ecYZaYPcixejjLXr3-78" vertex="1">
          <mxGeometry x="755" width="228" height="192" as="geometry">
            <mxRectangle width="228" height="192" as="alternateBounds" />
          </mxGeometry>
        </mxCell>
        <mxCell id="GK6ecYZaYPcixejjLXr3-83" style="swimlane;swimlaneHead=0;swimlaneBody=0;fontStyle=0;connectable=0;strokeColor=inherit;fillColor=none;startSize=0;collapsible=0;recursiveResize=0;expand=0;fontSize=16;" parent="GK6ecYZaYPcixejjLXr3-78" vertex="1">
          <mxGeometry x="983" width="229" height="192" as="geometry">
            <mxRectangle width="229" height="192" as="alternateBounds" />
          </mxGeometry>
        </mxCell>
        <mxCell id="GK6ecYZaYPcixejjLXr3-86" value="Система кредитного скоринга" style="rounded=1;whiteSpace=wrap;html=1;fillColor=#76608a;fontColor=#ffffff;strokeColor=#432D57;" parent="GK6ecYZaYPcixejjLXr3-83" vertex="1">
          <mxGeometry x="14.5" y="70" width="205.5" height="47" as="geometry" />
        </mxCell>
        <mxCell id="GK6ecYZaYPcixejjLXr3-85" value="Кредитный конвейер" style="rounded=1;whiteSpace=wrap;html=1;fillColor=#647687;fontColor=#ffffff;strokeColor=#314354;" parent="GK6ecYZaYPcixejjLXr3-83" vertex="1">
          <mxGeometry x="14.5" y="10" width="205.5" height="50" as="geometry" />
        </mxCell>
        <mxCell id="GK6ecYZaYPcixejjLXr3-84" style="swimlane;swimlaneHead=0;swimlaneBody=0;fontStyle=0;connectable=0;strokeColor=inherit;fillColor=none;startSize=0;collapsible=0;recursiveResize=0;expand=0;fontSize=16;" parent="GK6ecYZaYPcixejjLXr3-78" vertex="1">
          <mxGeometry x="1212" width="228" height="192" as="geometry">
            <mxRectangle width="228" height="192" as="alternateBounds" />
          </mxGeometry>
        </mxCell>
        <mxCell id="GK6ecYZaYPcixejjLXr3-71" value="Кол-центр банка «Стандарт»" style="shape=tableRow;horizontal=0;swimlaneHead=0;swimlaneBody=0;top=0;left=0;strokeColor=#23445d;bottom=0;right=0;dropTarget=0;fontStyle=0;fillColor=#bac8d3;points=[[0,0.5],[1,0.5]];portConstraint=eastwest;startSize=70;collapsible=0;recursiveResize=0;expand=0;fontSize=16;whiteSpace=wrap;" parent="GK6ecYZaYPcixejjLXr3-1" vertex="1">
          <mxGeometry y="804" width="1440" height="193" as="geometry" />
        </mxCell>
        <mxCell id="GK6ecYZaYPcixejjLXr3-72" style="swimlane;swimlaneHead=0;swimlaneBody=0;fontStyle=0;connectable=0;strokeColor=inherit;fillColor=none;startSize=0;collapsible=0;recursiveResize=0;expand=0;fontSize=16;" parent="GK6ecYZaYPcixejjLXr3-71" vertex="1">
          <mxGeometry x="70" width="228" height="193" as="geometry">
            <mxRectangle width="228" height="193" as="alternateBounds" />
          </mxGeometry>
        </mxCell>
        <mxCell id="GK6ecYZaYPcixejjLXr3-73" style="swimlane;swimlaneHead=0;swimlaneBody=0;fontStyle=0;connectable=0;strokeColor=inherit;fillColor=none;startSize=0;collapsible=0;recursiveResize=0;expand=0;fontSize=16;" parent="GK6ecYZaYPcixejjLXr3-71" vertex="1">
          <mxGeometry x="298" width="229" height="193" as="geometry">
            <mxRectangle width="229" height="193" as="alternateBounds" />
          </mxGeometry>
        </mxCell>
        <mxCell id="GK6ecYZaYPcixejjLXr3-119" value="Система кол-центра" style="rounded=1;whiteSpace=wrap;html=1;fillColor=#0050ef;fontColor=#ffffff;strokeColor=#001DBC;" parent="GK6ecYZaYPcixejjLXr3-73" vertex="1">
          <mxGeometry x="22" y="16" width="178" height="84" as="geometry" />
        </mxCell>
        <mxCell id="GK6ecYZaYPcixejjLXr3-74" style="swimlane;swimlaneHead=0;swimlaneBody=0;fontStyle=0;connectable=0;strokeColor=inherit;fillColor=none;startSize=0;collapsible=0;recursiveResize=0;expand=0;fontSize=16;" parent="GK6ecYZaYPcixejjLXr3-71" vertex="1">
          <mxGeometry x="527" width="228" height="193" as="geometry">
            <mxRectangle width="228" height="193" as="alternateBounds" />
          </mxGeometry>
        </mxCell>
        <mxCell id="GK6ecYZaYPcixejjLXr3-75" style="swimlane;swimlaneHead=0;swimlaneBody=0;fontStyle=0;connectable=0;strokeColor=inherit;fillColor=none;startSize=0;collapsible=0;recursiveResize=0;expand=0;fontSize=16;" parent="GK6ecYZaYPcixejjLXr3-71" vertex="1">
          <mxGeometry x="755" width="228" height="193" as="geometry">
            <mxRectangle width="228" height="193" as="alternateBounds" />
          </mxGeometry>
        </mxCell>
        <mxCell id="GK6ecYZaYPcixejjLXr3-76" style="swimlane;swimlaneHead=0;swimlaneBody=0;fontStyle=0;connectable=0;strokeColor=inherit;fillColor=none;startSize=0;collapsible=0;recursiveResize=0;expand=0;fontSize=16;" parent="GK6ecYZaYPcixejjLXr3-71" vertex="1">
          <mxGeometry x="983" width="229" height="193" as="geometry">
            <mxRectangle width="229" height="193" as="alternateBounds" />
          </mxGeometry>
        </mxCell>
        <mxCell id="GK6ecYZaYPcixejjLXr3-77" style="swimlane;swimlaneHead=0;swimlaneBody=0;fontStyle=0;connectable=0;strokeColor=inherit;fillColor=none;startSize=0;collapsible=0;recursiveResize=0;expand=0;fontSize=16;" parent="GK6ecYZaYPcixejjLXr3-71" vertex="1">
          <mxGeometry x="1212" width="228" height="193" as="geometry">
            <mxRectangle width="228" height="193" as="alternateBounds" />
          </mxGeometry>
        </mxCell>
        <mxCell id="GK6ecYZaYPcixejjLXr3-64" value="Партнёрский кол-центр" style="shape=tableRow;horizontal=0;swimlaneHead=0;swimlaneBody=0;top=0;left=0;strokeColor=#23445d;bottom=0;right=0;dropTarget=0;fontStyle=0;fillColor=#bac8d3;points=[[0,0.5],[1,0.5]];portConstraint=eastwest;startSize=70;collapsible=0;recursiveResize=0;expand=0;fontSize=16;whiteSpace=wrap;" parent="GK6ecYZaYPcixejjLXr3-1" vertex="1">
          <mxGeometry y="997" width="1440" height="192" as="geometry" />
        </mxCell>
        <mxCell id="GK6ecYZaYPcixejjLXr3-65" style="swimlane;swimlaneHead=0;swimlaneBody=0;fontStyle=0;connectable=0;strokeColor=inherit;fillColor=none;startSize=0;collapsible=0;recursiveResize=0;expand=0;fontSize=16;" parent="GK6ecYZaYPcixejjLXr3-64" vertex="1">
          <mxGeometry x="70" width="228" height="192" as="geometry">
            <mxRectangle width="228" height="192" as="alternateBounds" />
          </mxGeometry>
        </mxCell>
        <mxCell id="GK6ecYZaYPcixejjLXr3-66" style="swimlane;swimlaneHead=0;swimlaneBody=0;fontStyle=0;connectable=0;strokeColor=inherit;fillColor=none;startSize=0;collapsible=0;recursiveResize=0;expand=0;fontSize=16;" parent="GK6ecYZaYPcixejjLXr3-64" vertex="1">
          <mxGeometry x="298" width="229" height="192" as="geometry">
            <mxRectangle width="229" height="192" as="alternateBounds" />
          </mxGeometry>
        </mxCell>
        <mxCell id="GK6ecYZaYPcixejjLXr3-120" value="Система партнёрского кол-центра" style="rounded=1;whiteSpace=wrap;html=1;fillColor=#1ba1e2;fontColor=#ffffff;strokeColor=#006EAF;" parent="GK6ecYZaYPcixejjLXr3-66" vertex="1">
          <mxGeometry x="25.5" y="33" width="178" height="84" as="geometry" />
        </mxCell>
        <mxCell id="GK6ecYZaYPcixejjLXr3-67" style="swimlane;swimlaneHead=0;swimlaneBody=0;fontStyle=0;connectable=0;strokeColor=inherit;fillColor=none;startSize=0;collapsible=0;recursiveResize=0;expand=0;fontSize=16;" parent="GK6ecYZaYPcixejjLXr3-64" vertex="1">
          <mxGeometry x="527" width="228" height="192" as="geometry">
            <mxRectangle width="228" height="192" as="alternateBounds" />
          </mxGeometry>
        </mxCell>
        <mxCell id="GK6ecYZaYPcixejjLXr3-68" style="swimlane;swimlaneHead=0;swimlaneBody=0;fontStyle=0;connectable=0;strokeColor=inherit;fillColor=none;startSize=0;collapsible=0;recursiveResize=0;expand=0;fontSize=16;" parent="GK6ecYZaYPcixejjLXr3-64" vertex="1">
          <mxGeometry x="755" width="228" height="192" as="geometry">
            <mxRectangle width="228" height="192" as="alternateBounds" />
          </mxGeometry>
        </mxCell>
        <mxCell id="GK6ecYZaYPcixejjLXr3-69" style="swimlane;swimlaneHead=0;swimlaneBody=0;fontStyle=0;connectable=0;strokeColor=inherit;fillColor=none;startSize=0;collapsible=0;recursiveResize=0;expand=0;fontSize=16;" parent="GK6ecYZaYPcixejjLXr3-64" vertex="1">
          <mxGeometry x="983" width="229" height="192" as="geometry">
            <mxRectangle width="229" height="192" as="alternateBounds" />
          </mxGeometry>
        </mxCell>
        <mxCell id="GK6ecYZaYPcixejjLXr3-70" style="swimlane;swimlaneHead=0;swimlaneBody=0;fontStyle=0;connectable=0;strokeColor=inherit;fillColor=none;startSize=0;collapsible=0;recursiveResize=0;expand=0;fontSize=16;" parent="GK6ecYZaYPcixejjLXr3-64" vertex="1">
          <mxGeometry x="1212" width="228" height="192" as="geometry">
            <mxRectangle width="228" height="192" as="alternateBounds" />
          </mxGeometry>
        </mxCell>
        <mxCell id="GK6ecYZaYPcixejjLXr3-133" value="Сайт" style="rounded=1;whiteSpace=wrap;html=1;fillColor=#f0a30a;fontColor=#000000;strokeColor=#BD7000;" parent="1" vertex="1">
          <mxGeometry x="647" y="410" width="180" height="45" as="geometry" />
        </mxCell>
      </root>
    </mxGraphModel>
  </diagram>
</mxfile>
